<svg width="120" height="57" viewBox="0 0 120 57" fill="none" xmlns="http://www.w3.org/2000/svg">
<g clip-path="url(#clip0_44_984)">
<path d="M55.3389 47.8099C55.3389 43.4016 60.7314 42.7218 62.3779 45.7704L65.2708 44.1204C64.0527 42.0136 61.7123 40.707 59.1027 40.707C55.1795 40.707 52.0034 43.7663 52.0034 47.8063C52.0034 51.8464 55.1795 54.8455 59.1027 54.8455C61.6733 54.8455 63.9147 53.6167 65.161 51.5879L62.2965 49.9556C60.5686 52.8378 55.3389 52.1403 55.3389 47.8099Z" fill="#212325"/>
<path d="M57.9414 0.222656C62.6081 0.222656 64.9521 3.77761 64.9521 7.31131C64.9521 10.845 62.6081 14.361 57.9414 14.361H52.3257V0.222656H57.9414ZM57.9414 11.068C60.3243 11.068 61.5388 9.17022 61.5388 7.31131C61.5388 5.4524 60.3279 3.49435 57.9414 3.49435H55.7603V11.068H57.9414Z" fill="#212325"/>
<path d="M73.4323 6.22338V5.28508H76.0666V14.3601H73.4323V13.4536C72.8127 14.2255 71.9239 14.4769 71.0494 14.4769C68.1637 14.4769 66.6695 12.1612 66.6872 9.66148C66.7225 7.17939 68.1459 5.13281 71.0813 5.13281C71.9736 5.13281 72.8445 5.46919 73.4323 6.22338ZM73.4323 9.76416C73.4323 8.55676 72.5082 7.56534 71.368 7.56534C70.0261 7.56534 69.3534 8.62049 69.3392 9.72875C69.3215 10.8193 70.0119 11.9417 71.368 11.9417C72.5082 11.9453 73.4323 10.9715 73.4323 9.76416Z" fill="#212325"/>
<path d="M82.8333 14.512C80.8044 14.5297 79.5793 13.5878 79.5793 11.2225V7.64994H78.3896V5.38737H79.5793V3.65948L82.2136 3.42578V5.38737H84.108V7.64994H82.2136V11.2225C82.2136 12.0299 82.8014 12.2813 83.4388 12.2813C83.6902 12.2813 83.9592 12.2459 84.1929 12.1963L84.278 14.3774C83.7574 14.4624 83.2688 14.512 82.8333 14.512Z" fill="#212325"/>
<path d="M93.1755 6.22338V5.28508H95.8099V14.3601H93.1755V13.4536C92.5559 14.2255 91.6672 14.4769 90.7925 14.4769C87.9069 14.4769 86.4126 12.1612 86.4303 9.66148C86.4657 7.17939 87.8892 5.13281 90.8244 5.13281C91.7168 5.13281 92.5878 5.46919 93.1755 6.22338ZM93.1755 9.76416C93.1755 8.55676 92.2514 7.56534 91.1113 7.56534C89.7693 7.56534 89.0965 8.62049 89.0824 9.72875C89.0646 10.8193 89.7552 11.9417 91.1113 11.9417C92.255 11.9453 93.1755 10.9715 93.1755 9.76416Z" fill="#212325"/>
<path d="M52.6372 29.8089V20.3516H56.0435V29.7912C56.0435 31.8839 59.9879 31.8414 59.9879 29.7912V20.3516H63.3942V29.8089C63.3942 32.9567 60.6854 34.5076 57.9979 34.4899C55.3034 34.4899 52.6372 32.9567 52.6372 29.8089Z" fill="#212325"/>
<path d="M68.9318 25.4158V26.3223C69.5692 25.5185 70.642 25.2812 71.6157 25.2812C74.2005 25.3131 74.9051 27.2287 74.8874 29.4913V34.4908H72.2035V29.5089C72.2035 28.2839 71.5166 27.7315 70.7943 27.7315C70.0047 27.7315 69.0664 28.4042 69.0664 29.5585V34.4908H66.2656V25.4158H68.9318Z" fill="#212325"/>
<path d="M84.0403 26.2368V22.6641H86.6747V34.4903H84.0403V33.5839C83.4207 34.3557 82.5319 34.6072 81.6574 34.6072C78.7716 34.6072 77.2774 32.2915 77.2951 29.7917C77.327 27.3096 78.7539 25.263 81.6893 25.263C82.578 25.263 83.4349 25.5499 84.0403 26.2368ZM84.0403 29.8944C84.0403 28.687 83.1161 27.6955 81.976 27.6955C80.6341 27.6955 79.9613 28.7507 79.9472 29.859C79.9295 30.9495 80.6199 32.072 81.976 32.072C83.1161 32.0755 84.0403 31.1017 84.0403 29.8944Z" fill="#212325"/>
<path d="M97.8388 30.9683H91.3308C91.6495 31.8074 92.471 32.2252 93.2783 32.2429C93.8661 32.2429 94.4184 32.0411 94.8044 31.6233H97.6724C96.9677 33.6379 95.0557 34.6258 93.1437 34.594C90.8457 34.5445 88.5654 33.0007 88.5654 29.9308C88.5654 26.8114 90.9307 25.2675 93.296 25.2853C95.6293 25.303 97.9414 26.8468 97.9414 29.9308C97.9414 30.299 97.9061 30.6318 97.8388 30.9683ZM95.0557 28.9039C94.8044 27.9975 94.0643 27.5797 93.211 27.5797C92.4214 27.5797 91.7026 28.0152 91.4335 28.9039H95.0557Z" fill="#212325"/>
<path d="M102.718 34.4896H100.084V25.4147H102.467L102.566 26.0202C103.154 25.4677 103.809 25.2305 104.545 25.2305C104.864 25.2305 105.215 25.28 105.569 25.3651L105.533 27.8471C105.264 27.7622 104.945 27.7126 104.645 27.7126C103.689 27.7303 102.715 28.2331 102.715 29.4582V34.4896H102.718Z" fill="#212325"/>
<path d="M67.041 50.0926C67.041 43.6165 76.7214 43.6343 76.7214 50.0926C76.7214 56.551 67.041 56.5156 67.041 50.0926ZM74.0694 50.0926C74.0694 47.005 69.693 47.0228 69.693 50.0926C69.6894 53.1271 74.0694 53.1448 74.0694 50.0926Z" fill="#212325"/>
<path d="M81.1545 45.5447V46.4512C81.7919 45.6474 82.8647 45.4102 83.8384 45.4102C86.4232 45.4421 87.1279 47.3576 87.1101 49.6202V54.6197H84.4262V49.6378C84.4262 48.4128 83.7393 47.8604 83.017 47.8604C82.2273 47.8604 81.289 48.5331 81.289 49.6874V54.6197H78.4883V45.5447H81.1545Z" fill="#212325"/>
<path d="M93.3812 54.7736C91.3523 54.7914 90.1273 53.8495 90.1273 51.4842V47.9116H88.9375V45.6491H90.1273V43.9212L92.7616 43.6875V45.6491H94.6559V47.9116H92.7616V51.4842C92.7616 52.2916 93.3494 52.543 93.9867 52.543C94.2381 52.543 94.5072 52.5076 94.7409 52.458L94.8258 54.6391C94.3018 54.7205 93.8168 54.7736 93.3812 54.7736Z" fill="#212325"/>
<path d="M99.882 54.6185H97.2476V45.5435H99.6306L99.7297 46.149C100.317 45.5966 100.973 45.3594 101.709 45.3594C102.028 45.3594 102.382 45.409 102.732 45.4939L102.697 47.976C102.428 47.8911 102.109 47.8415 101.808 47.8415C100.852 47.8592 99.8784 48.362 99.8784 49.5871V54.6185H99.882Z" fill="#212325"/>
<path d="M104.188 50.0926C104.188 43.6165 113.868 43.6343 113.868 50.0926C113.868 56.551 104.188 56.5156 104.188 50.0926ZM111.216 50.0926C111.216 47.005 106.84 47.0228 106.84 50.0926C106.84 53.1271 111.216 53.1448 111.216 50.0926Z" fill="#212325"/>
<path d="M118.326 42.8789V54.6202H115.642V42.8789H118.326Z" fill="#212325"/>
<path d="M13.5401 0.00390625C10.9057 0.00390625 8.76709 2.14254 8.76709 4.77689C8.76709 7.41123 10.9057 9.54986 13.5401 9.54986C16.1744 9.54986 18.313 7.41123 18.313 4.77689C18.313 2.139 16.1744 0.00390625 13.5401 0.00390625ZM13.5401 8.08397C11.713 8.08397 10.233 6.60393 10.233 4.77689C10.233 2.94985 11.713 1.46979 13.5401 1.46979C15.3672 1.46979 16.8472 2.94985 16.8472 4.77689C16.8472 6.60393 15.3672 8.08397 13.5401 8.08397Z" fill="#212325"/>
<path d="M31.0737 0.00390625C28.4394 0.00390625 26.3008 2.14254 26.3008 4.77689C26.3008 7.41123 28.4394 9.54986 31.0737 9.54986C33.7081 9.54986 35.8468 7.41123 35.8468 4.77689C35.8468 2.139 33.7081 0.00390625 31.0737 0.00390625ZM31.0737 8.08397C29.2467 8.08397 27.7667 6.60393 27.7667 4.77689C27.7667 2.94985 29.2467 1.46979 31.0737 1.46979C32.9008 1.46979 34.3809 2.94985 34.3809 4.77689C34.3809 6.60393 32.8973 8.08397 31.0737 8.08397Z" fill="#212325"/>
<path d="M22.3072 9.4291C21.9035 9.4291 21.5742 9.09982 21.5742 8.69618V0.732945C21.5742 0.329295 21.9035 0 22.3072 0C22.7109 0 23.0401 0.329295 23.0401 0.732945V8.69618C23.0401 9.10337 22.7109 9.4291 22.3072 9.4291Z" fill="#212325"/>
<path d="M13.5401 46.5117C10.9057 46.5117 8.76709 48.6504 8.76709 51.2848C8.76709 53.9191 10.9057 56.0577 13.5401 56.0577C16.1744 56.0577 18.313 53.9191 18.313 51.2848C18.313 48.6504 16.1744 46.5117 13.5401 46.5117ZM13.5401 54.5918C11.713 54.5918 10.233 53.1117 10.233 51.2848C10.233 49.4577 11.713 47.9776 13.5401 47.9776C15.3672 47.9776 16.8472 49.4577 16.8472 51.2848C16.8472 53.1117 15.3672 54.5918 13.5401 54.5918Z" fill="#212325"/>
<path d="M31.0737 46.5117C28.4394 46.5117 26.3008 48.6504 26.3008 51.2848C26.3008 53.9191 28.4394 56.0577 31.0737 56.0577C33.7081 56.0577 35.8468 53.9191 35.8468 51.2848C35.8468 48.6504 33.7081 46.5117 31.0737 46.5117ZM31.0737 54.5918C29.2467 54.5918 27.7667 53.1117 27.7667 51.2848C27.7667 49.4577 29.2467 47.9776 31.0737 47.9776C32.9008 47.9776 34.3809 49.4577 34.3809 51.2848C34.3809 53.1117 32.8973 54.5918 31.0737 54.5918Z" fill="#212325"/>
<path d="M22.3072 55.9409C21.9035 55.9409 21.5742 55.6115 21.5742 55.2079V47.2447C21.5742 46.8411 21.9035 46.5117 22.3072 46.5117C22.7109 46.5117 23.0401 46.8411 23.0401 47.2447V55.2079C23.0401 55.6115 22.7109 55.9409 22.3072 55.9409Z" fill="#212325"/>
<path d="M4.77297 11.3164C2.13863 11.3164 0 13.455 0 16.0894C0 18.7238 2.13863 20.8624 4.77297 20.8624C7.40732 20.8624 9.54595 18.7238 9.54595 16.0894C9.54595 13.455 7.41086 11.3164 4.77297 11.3164ZM4.77297 19.4C2.94593 19.4 1.46588 17.92 1.46588 16.0929C1.46588 14.2659 2.94593 12.7859 4.77297 12.7859C6.60002 12.7859 8.08007 14.2659 8.08007 16.0929C8.08007 17.92 6.60002 19.4 4.77297 19.4Z" fill="#212325"/>
<path d="M22.3071 11.3164C19.6728 11.3164 17.5342 13.455 17.5342 16.0894C17.5342 18.7238 19.6728 20.8624 22.3071 20.8624C24.9414 20.8624 27.0801 18.7238 27.0801 16.0894C27.0801 13.455 24.9414 11.3164 22.3071 11.3164ZM22.3071 19.4C20.4801 19.4 19.0001 17.92 19.0001 16.0929C19.0001 14.2659 20.4801 12.7859 22.3071 12.7859C24.1342 12.7859 25.6142 14.2659 25.6142 16.0929C25.6142 17.92 24.1342 19.4 22.3071 19.4Z" fill="#212325"/>
<path d="M13.5401 20.7456C13.1364 20.7456 12.8071 20.4162 12.8071 20.0126V12.0494C12.8071 11.6457 13.1364 11.3164 13.5401 11.3164C13.9437 11.3164 14.273 11.6457 14.273 12.0494V20.0126C14.273 20.4162 13.9437 20.7456 13.5401 20.7456Z" fill="#212325"/>
<path d="M40.0283 11.3164C37.394 11.3164 35.2554 13.455 35.2554 16.0894C35.2554 18.7238 37.394 20.8624 40.0283 20.8624C42.6627 20.8624 44.8014 18.7238 44.8014 16.0894C44.8014 13.455 42.6627 11.3164 40.0283 11.3164ZM40.0283 19.4C38.2013 19.4 36.7213 17.92 36.7213 16.0929C36.7213 14.2659 38.2013 12.7859 40.0283 12.7859C41.8554 12.7859 43.3355 14.2659 43.3355 16.0929C43.3355 17.92 41.8554 19.4 40.0283 19.4Z" fill="#212325"/>
<path d="M31.2618 20.7456C30.8581 20.7456 30.5288 20.4162 30.5288 20.0126V12.0494C30.5288 11.6457 30.8581 11.3164 31.2618 11.3164C31.6654 11.3164 31.9947 11.6457 31.9947 12.0494V20.0126C31.9947 20.4162 31.6654 20.7456 31.2618 20.7456Z" fill="#212325"/>
<path d="M13.5401 22.8008C10.9057 22.8008 8.76709 24.9394 8.76709 27.5737C8.76709 30.2081 10.9057 32.3468 13.5401 32.3468C16.1744 32.3468 18.313 30.2081 18.313 27.5737C18.313 24.9394 16.1744 22.8008 13.5401 22.8008ZM13.5401 30.8809C11.713 30.8809 10.233 29.4008 10.233 27.5737C10.233 25.7468 11.713 24.2667 13.5401 24.2667C15.3672 24.2667 16.8472 25.7468 16.8472 27.5737C16.8472 29.4008 15.3672 30.8809 13.5401 30.8809Z" fill="#212325"/>
<path d="M4.77299 32.2299C4.36933 32.2299 4.04004 31.9006 4.04004 31.497V23.5337C4.04004 23.13 4.36933 22.8008 4.77299 22.8008C5.17663 22.8008 5.50592 23.13 5.50592 23.5337V31.497C5.50592 31.9006 5.17663 32.2299 4.77299 32.2299Z" fill="#212325"/>
<path d="M31.0737 22.8008C28.4394 22.8008 26.3008 24.9394 26.3008 27.5737C26.3008 30.2081 28.4394 32.3468 31.0737 32.3468C33.7081 32.3468 35.8468 30.2081 35.8468 27.5737C35.8468 24.9394 33.7081 22.8008 31.0737 22.8008ZM31.0737 30.8809C29.2467 30.8809 27.7667 29.4008 27.7667 27.5737C27.7667 25.7468 29.2467 24.2667 31.0737 24.2667C32.9008 24.2667 34.3809 25.7468 34.3809 27.5737C34.3809 29.4008 32.8973 30.8809 31.0737 30.8809Z" fill="#212325"/>
<path d="M40.0283 34.5977C37.394 34.5977 35.2554 36.7363 35.2554 39.3706C35.2554 42.005 37.394 44.1437 40.0283 44.1437C42.6627 44.1437 44.8014 42.005 44.8014 39.3706C44.8014 36.7363 42.6627 34.5977 40.0283 34.5977ZM40.0283 42.6778C38.2013 42.6778 36.7213 41.1977 36.7213 39.3706C36.7213 37.5437 38.2013 36.0636 40.0283 36.0636C41.8554 36.0636 43.3355 37.5437 43.3355 39.3706C43.3355 41.1977 41.8554 42.6778 40.0283 42.6778Z" fill="#212325"/>
<path d="M4.77297 34.5977C2.13863 34.5977 0 36.7363 0 39.3706C0 42.005 2.13863 44.1437 4.77297 44.1437C7.40732 44.1437 9.54595 42.005 9.54595 39.3706C9.54595 36.7363 7.41086 34.5977 4.77297 34.5977ZM4.77297 42.6778C2.94593 42.6778 1.46588 41.1977 1.46588 39.3706C1.46588 37.5437 2.94593 36.0636 4.77297 36.0636C6.60002 36.0636 8.08007 37.5437 8.08007 39.3706C8.08007 41.1977 6.60002 42.6778 4.77297 42.6778Z" fill="#212325"/>
<path d="M22.3072 32.2299C21.9035 32.2299 21.5742 31.9006 21.5742 31.497V23.5337C21.5742 23.13 21.9035 22.8008 22.3072 22.8008C22.7109 22.8008 23.0401 23.13 23.0401 23.5337V31.497C23.0401 31.9006 22.7109 32.2299 22.3072 32.2299Z" fill="#212325"/>
<path d="M22.3071 34.6562C19.6728 34.6562 17.5342 36.7949 17.5342 39.4292C17.5342 42.0635 19.6728 44.2021 22.3071 44.2021C24.9414 44.2021 27.0801 42.0635 27.0801 39.4292C27.0801 36.7949 24.9414 34.6562 22.3071 34.6562ZM22.3071 42.7364C20.4801 42.7364 19.0001 41.2562 19.0001 39.4292C19.0001 37.6021 20.4801 36.1221 22.3071 36.1221C24.1342 36.1221 25.6142 37.6021 25.6142 39.4292C25.6142 41.2562 24.1342 42.7364 22.3071 42.7364Z" fill="#212325"/>
<path d="M13.5401 44.0815C13.1364 44.0815 12.8071 43.7522 12.8071 43.3486V35.3853C12.8071 34.9816 13.1364 34.6523 13.5401 34.6523C13.9437 34.6523 14.273 34.9816 14.273 35.3853V43.3486C14.273 43.7557 13.9437 44.0815 13.5401 44.0815Z" fill="#212325"/>
<path d="M31.2618 44.0815C30.8581 44.0815 30.5288 43.7522 30.5288 43.3486V35.3853C30.5288 34.9816 30.8581 34.6523 31.2618 34.6523C31.6654 34.6523 31.9947 34.9816 31.9947 35.3853V43.3486C31.9947 43.7557 31.6654 44.0815 31.2618 44.0815Z" fill="#212325"/>
<path d="M40.0284 32.2299C39.6248 32.2299 39.2954 31.9006 39.2954 31.497V23.5337C39.2954 23.13 39.6248 22.8008 40.0284 22.8008C40.432 22.8008 40.7613 23.13 40.7613 23.5337V31.497C40.7613 31.9006 40.432 32.2299 40.0284 32.2299Z" fill="#212325"/>
</g>
<defs>
<clipPath id="clip0_44_984">
<rect width="120" height="56.8421" fill="white"/>
</clipPath>
</defs>
</svg>
